<svg xmlns="http://www.w3.org/2000/svg" width="16.5" height="16.485" viewBox="0 0 16.5 16.485">
  <path id="close" d="M17.785,3.474a.635.635,0,0,1,0,.894L12.856,9.292a.636.636,0,0,0,0,.9l4.926,4.926a.636.636,0,0,1,0,.9L15.988,17.8a.639.639,0,0,1-.9,0l-4.925-4.925a.637.637,0,0,0-.9,0L4.342,17.794a.637.637,0,0,1-.9,0L1.654,16a.636.636,0,0,1,0-.9l4.93-4.923a.636.636,0,0,0,0-.9L1.658,4.363a.634.634,0,0,1,0-.9L3.451,1.679a.638.638,0,0,1,.9,0L9.272,6.6a.636.636,0,0,0,.9,0L15.1,1.683a.638.638,0,0,1,.9,0Z" transform="translate(-1.469 -1.495)" fill="#474747"/>
</svg>
