<svg xmlns="http://www.w3.org/2000/svg" width="52" height="52" viewBox="0 0 52 52">
  <g id="btn-blue" transform="translate(-201 -736)">
    <g id="bg" transform="translate(201 736)" fill="#ffdc3b">
      <path d="M 26 50.5 C 22.69186019897461 50.5 19.48347091674805 49.8524284362793 16.46396064758301 48.57529067993164 C 13.54668998718262 47.34138870239258 10.92640972137451 45.57463836669922 8.67588996887207 43.32411956787109 C 6.425360202789307 41.07360076904297 4.658609867095947 38.45330810546875 3.424720048904419 35.53604888916016 C 2.147569894790649 32.51652908325195 1.5 29.30813980102539 1.5 26 C 1.5 22.69186019897461 2.147569894790649 19.48347091674805 3.424720048904419 16.46396064758301 C 4.658609867095947 13.54668998718262 6.425360202789307 10.92640972137451 8.67588996887207 8.67588996887207 C 10.92640972137451 6.425360202789307 13.54668998718262 4.658609867095947 16.46396064758301 3.424720048904419 C 19.48347091674805 2.147569894790649 22.69186019897461 1.5 26 1.5 C 29.30813980102539 1.5 32.51652908325195 2.147569894790649 35.53604888916016 3.424720048904419 C 38.45330810546875 4.658609867095947 41.07360076904297 6.425360202789307 43.32411956787109 8.67588996887207 C 45.57463836669922 10.92640972137451 47.34138870239258 13.54668998718262 48.57529067993164 16.46396064758301 C 49.8524284362793 19.48347091674805 50.5 22.69186019897461 50.5 26 C 50.5 29.30813980102539 49.8524284362793 32.51652908325195 48.57529067993164 35.53604888916016 C 47.34138870239258 38.45330810546875 45.57463836669922 41.07360076904297 43.32411956787109 43.32411956787109 C 41.07360076904297 45.57463836669922 38.45330810546875 47.34138870239258 35.53604888916016 48.57529067993164 C 32.51652908325195 49.8524284362793 29.30813980102539 50.5 26 50.5 Z" stroke="none"/>
      <path d="M 26 3 C 22.89369964599609 3 19.88190078735352 3.607700347900391 17.04827880859375 4.806221008300781 C 14.30981063842773 5.964488983154297 11.84978866577148 7.623291015625 9.736541748046875 9.736541748046875 C 7.623291015625 11.84978866577148 5.964488983154297 14.30981063842773 4.806221008300781 17.04827880859375 C 3.607700347900391 19.88190078735352 3 22.89369964599609 3 26 C 3 29.10630035400391 3.607700347900391 32.11808776855469 4.806221008300781 34.95172119140625 C 5.964488983154297 37.69017791748047 7.623291015625 40.15021133422852 9.736541748046875 42.26345062255859 C 11.84978866577148 44.37670135498047 14.30981063842773 46.03549957275391 17.04827880859375 47.19377899169922 C 19.88190078735352 48.39229965209961 22.89369964599609 49 26 49 C 29.10630035400391 49 32.11808776855469 48.39229965209961 34.95172119140625 47.19377899169922 C 37.69017791748047 46.03549957275391 40.15021133422852 44.37670135498047 42.26345062255859 42.26345062255859 C 44.37670135498047 40.15021133422852 46.03549957275391 37.69017791748047 47.19377899169922 34.95172119140625 C 48.39229965209961 32.11808776855469 49 29.10630035400391 49 26 C 49 22.89369964599609 48.39229965209961 19.88190078735352 47.19377899169922 17.04827880859375 C 46.03549957275391 14.30981063842773 44.37670135498047 11.84978866577148 42.26345062255859 9.736541748046875 C 40.15021133422852 7.623291015625 37.69017791748047 5.964488983154297 34.95172119140625 4.806221008300781 C 32.11808776855469 3.607700347900391 29.10630035400391 3 26 3 M 26 0 C 40.35939788818359 0 52 11.64059066772461 52 26 C 52 40.35939788818359 40.35939788818359 52 26 52 C 11.64059066772461 52 0 40.35939788818359 0 26 C 0 11.64059066772461 11.64059066772461 0 26 0 Z" stroke="none" fill="#ffdc3b"/>
    </g>
    <path id="pencil-alt" d="M21.1,6.023,19.145,7.977a.509.509,0,0,1-.72,0l-4.7-4.7a.509.509,0,0,1,0-.72L15.675.6a2.038,2.038,0,0,1,2.877,0L21.1,3.146A2.031,2.031,0,0,1,21.1,6.023ZM12.043,4.231.916,15.358l-.9,5.148A1.018,1.018,0,0,0,1.2,21.685l5.148-.9L17.471,9.655a.509.509,0,0,0,0-.72l-4.7-4.7a.514.514,0,0,0-.725,0ZM5.259,14.4a.591.591,0,0,1,0-.839L11.785,7.04a.593.593,0,1,1,.839.839L6.1,14.4a.591.591,0,0,1-.839,0ZM3.73,17.968H5.763v1.538l-2.733.479L1.713,18.668l.479-2.733H3.73Z" transform="translate(215.998 750.995)"/>
  </g>
</svg>
