<svg xmlns="http://www.w3.org/2000/svg" width="20.16" height="11.76" viewBox="0 0 20.16 11.76">
  <g id="eye_icon" transform="translate(-64 -144)">
    <path id="Path_5781" data-name="Path 5781" d="M84.113,149.891C81.735,147.15,78.448,144,74.08,144a9.3,9.3,0,0,0-5.087,1.565,27.162,27.162,0,0,0-4.94,4.263L64,149.88l.352.362c2.893,2.961,5.392,5.518,9.728,5.518a10,10,0,0,0,5.681-1.911,27.775,27.775,0,0,0,4.111-3.612l.289-.289ZM74.08,154.08a4.2,4.2,0,1,1,4.2-4.2A4.206,4.206,0,0,1,74.08,154.08Z"/>
    <path id="Path_5782" data-name="Path 5782" d="M210.226,208.987a1.813,1.813,0,0,1,.289-.987,2.528,2.528,0,1,0,2.52,2.531h0a1.813,1.813,0,0,1-.987.289A1.835,1.835,0,0,1,210.226,208.987Z" transform="translate(-136.44 -60.64)"/>
  </g>
</svg>
