<svg xmlns="http://www.w3.org/2000/svg" width="25" height="25" viewBox="0 0 25 25">
  <g id="Group_10493" data-name="Group 10493" transform="translate(-295 -438)">
    <g id="Ellipse_3164" data-name="Ellipse 3164" transform="translate(295 438)" fill="#fff" stroke="#474747" stroke-width="1">
      <circle cx="12.5" cy="12.5" r="12.5" stroke="none"/>
      <circle cx="12.5" cy="12.5" r="12" fill="none"/>
    </g>
    <path id="share_icon" d="M18.678,16.589a2.266,2.266,0,0,0-1.647.709l-4.842-2.371a2.071,2.071,0,0,0,0-.672l4.835-2.345a2.273,2.273,0,1,0-.622-1.56,2.291,2.291,0,0,0,.027.332l-4.835,2.345a2.275,2.275,0,1,0-.006,3.126l4.842,2.371a2.274,2.274,0,1,0,2.247-1.935Z" transform="translate(293.333 435.925)"/>
  </g>
</svg>
